<?xml version="1.0" encoding="utf-8"?>
<!-- Generator: Adobe Illustrator 19.0.0, SVG Export Plug-In . SVG Version: 6.00 Build 0)  -->
<svg version="1.1" xmlns="http://www.w3.org/2000/svg" xmlns:xlink="http://www.w3.org/1999/xlink" x="0px" y="0px"
	 viewBox="0 0 455 455" style="enable-background:new 0 0 455 455;" xml:space="preserve">
<style type="text/css">
	.st0{display:none;}
	.st1{fill:url(#XMLID_16_);}
	.st2{fill:url(#XMLID_17_);}
	.st3{fill:url(#XMLID_18_);}
	.st4{fill:url(#XMLID_19_);}
	.st5{fill:url(#XMLID_20_);}
	.st6{fill:url(#XMLID_21_);}
	.st7{fill:url(#XMLID_22_);}
</style>
<g id="Layer_1" class="st0">
</g>
<g id="Layer_2">
	<g id="XMLID_14_">
		
			<linearGradient id="XMLID_16_" gradientUnits="userSpaceOnUse" x1="330.3431" y1="459.5441" x2="378.3537" y2="338.5175" gradientTransform="matrix(-1 0 0 1 472.1519 0)">
			<stop  offset="0" style="stop-color:#533FD3"/>
			<stop  offset="1" style="stop-color:#3521B6"/>
		</linearGradient>
		<path id="XMLID_118_" class="st1" d="M213.2,455h-13.4c-16.2-23-34-44.8-53.4-65.1c-6-6.3-12.2-12.4-18.5-18.4
			c17.5,26.1,30.2,54.5,43.2,83.5h-7.5c-9.6-21-19-41.2-30.2-60.8c-17.3-30.2-39.8-55.5-69.1-74.6C44.2,306.4,22,295.8,0,286.5
			v-20.6c19,9.5,36.4,20,53.6,31.4C116.2,338.7,171.1,392,213.2,455z"/>
		
			<linearGradient id="XMLID_17_" gradientUnits="userSpaceOnUse" x1="385.7556" y1="401.7898" x2="328.7366" y2="512.8267" gradientTransform="matrix(-1 0 0 1 472.1519 0)">
			<stop  offset="0" style="stop-color:#533FD3"/>
			<stop  offset="1" style="stop-color:#3521B6"/>
		</linearGradient>
		<path id="XMLID_119_" class="st2" d="M140.1,430.8c-13.3-19.4-28.6-37.7-43.6-55.6c-2.6-3.1-5.2-6.1-8-9.1
			c-13.4-10.5-28.6-19-45.4-25.2c-14-5.1-28.1-8.8-43.1-11.9v-9.7c9,1.9,17.7,4,26.3,6.4c-1.2-0.5-2.4-0.9-3.6-1.4
			c-7.5-2.9-14.7-5.7-22.7-8.5v-11.7c9,3.1,16.8,6.2,25,9.5c27.3,10.9,50.9,24.6,70.7,46.1c9.1,7.2,17.5,15.4,25.1,24.7
			c14.5,17.7,25.7,37.8,35.4,58.5c2.2,3.9,4.3,8.1,6.3,12.1h-10.6C148.2,447,144.3,438.6,140.1,430.8z"/>
		
			<linearGradient id="XMLID_18_" gradientUnits="userSpaceOnUse" x1="382.186" y1="480.1186" x2="430.2029" y2="359.0761" gradientTransform="matrix(-1 0 0 1 472.1519 0)">
			<stop  offset="0" style="stop-color:#533FD3"/>
			<stop  offset="1" style="stop-color:#3521B6"/>
		</linearGradient>
		<path id="XMLID_120_" class="st3" d="M6.8,370.1c32.8,22.5,63.8,47.8,92.1,75.8c-8.6-13.7-16.8-27.6-25.6-41.2
			c-14.7-13-31.3-23.7-49.7-32.6c-7.7-3.7-15.5-7.4-23.5-11v-11.3c7,3.1,13.8,6.2,20.6,9.3c9.6,4.5,19,9.2,27.9,14.5
			c-12.4-12.1-26.8-21.8-44.1-28.4C3,344.7,2,344.2,0,343.7v-9.3c2,0.8,4.6,1.5,6.7,2.4c25.8,10,46.4,25.9,62.9,48
			c1.7,2.3,3.4,4.7,5.1,7c6.7,5.4,13,11.4,19,17.9c12.8,13.9,24.4,29.2,34.8,45.2h-12.8c-4.8-7-9.9-14.1-15.2-20.9
			c4.1,7,8.3,13.9,12.7,20.9H96.8c-9-9-18.5-18.1-28.3-26.6C47,409.4,24,391.8,0,375.8v-10.2C2,367.1,4.6,368.6,6.8,370.1z"/>
		
			<linearGradient id="XMLID_19_" gradientUnits="userSpaceOnUse" x1="220.3707" y1="145.5831" x2="499.4344" y2="488.6942" gradientTransform="matrix(-1 0 0 1 472.1519 0)">
			<stop  offset="0" style="stop-color:#533FD3"/>
			<stop  offset="1" style="stop-color:#3521B6"/>
		</linearGradient>
		<path id="XMLID_121_" class="st4" d="M0,455v-16.2c4,5.5,8.9,11.2,13.4,16.2H0z"/>
		
			<linearGradient id="XMLID_20_" gradientUnits="userSpaceOnUse" x1="445.1943" y1="402.6058" x2="397.1648" y2="524.6807" gradientTransform="matrix(-1 0 0 1 472.1519 0)">
			<stop  offset="0" style="stop-color:#533FD3"/>
			<stop  offset="1" style="stop-color:#3521B6"/>
		</linearGradient>
		<path id="XMLID_122_" class="st5" d="M64.8,439.8c4.6,4.7,9,10.2,13,15.2H67.4c-0.8-1-1.6-2.1-2.5-3C49,433.6,28.7,419.4,9,405.3
			c14.7,15.4,27,32.7,40.2,49.7H36.4C26.2,442,16.2,428.3,5,416c-1.6-1.7-3-3.5-5-5.1v-22.6C22,404.2,45.7,420.1,64.8,439.8z"/>
		
			<linearGradient id="XMLID_21_" gradientUnits="userSpaceOnUse" x1="307.6237" y1="287.8949" x2="292.6229" y2="409.9011" gradientTransform="matrix(-1 0 0 1 472.1519 0)">
			<stop  offset="0" style="stop-color:#533FD3"/>
			<stop  offset="1" style="stop-color:#3521B6"/>
		</linearGradient>
		<path id="XMLID_125_" class="st6" d="M41,224.1c-13.8-9.9-27-20.8-41-30.6v12.8c17,12.5,33.2,26.4,51.4,37.1
			c20.8,12.2,43.7,17.3,67.3,21.2c19.7,3.3,40.3,6.4,57.9,16.1c-6.1-1.1-12.3-1.7-18.5-2c-15.4-4.4-31.5-7.1-46.7-10.8
			c-16.8-4.2-33.4-9.3-49.8-15c-7.7-2.7-15.4-5.5-23-8.5c-7.4-2.9-13.5-4-21.3-5.2c-0.4-0.1-0.9,0.2-1,0.6
			C10.9,234.7,6,229.4,0,224.2v9.2v16.2c54,30.5,103.7,68.3,147.4,111.9c21.6,21.5,41.9,44.5,60.4,68.6c4.5,8.3,8.9,16.9,13.6,24.9
			h28.4c-1.8-5-3.6-9.6-5.2-14.5c-0.2-1.3-0.3-2.7-0.5-4c-2-17.6-3.5-36.3-6.4-54.6c8.2,24.3,15.5,49.1,24,73.1h9.1
			c-15.5-44-26.2-90.2-47-131.9c-3.6-12.9-10.2-24.6-21-32.2c-3.5-3.9-7.3-7.4-11.3-10.7c11.9,6.6,23.9,13.2,35.3,20.5
			c29.4,46.3,46.2,99.1,68.6,148.9c0.8,1.7,1.6,3.3,2.3,5.3h8.1c-5-11-9.7-22.1-14.2-33.3c-15-36.9-29.1-74.9-48.8-109.7
			c4.6,3.6,9,7.4,13.2,11.5c36.8,36,55,85.4,76.6,131.4h12.3c-3.2-7-6.3-13.5-9.3-20.2c-23.4-51.7-47.3-105.8-95.6-139
			c-4-2.7-8.1-5.4-12.2-7.9c-2.7-4-5.6-8-8.5-11.9c-34.2-45-83.3-72.1-135.8-90.6c-7-2.5-14.1-4.8-21.2-7
			C41.7,162.6,21,146.7,0,131.4V144c12,8.5,22.4,17.2,33.5,25.9c-11.2-3.2-22.5-6.3-33.5-9.4v8.5c17,4.8,34.3,9.4,51.2,14.5
			c20.2,15.8,40.7,31.6,61.6,46.5c17.9,12.9,36.3,25.2,55.2,36.5c-18.9-7.6-39.5-10.3-59.4-14.1C83.5,247.8,61.7,239,41,224.1z
			 M192.3,386.9c1.8,2.5,3.5,5.1,5.1,7.7C195.8,392,194.1,389.4,192.3,386.9z M118.8,321.5c9,7,18.4,13.8,27.6,20.9
			c9.1,10.2,17.6,20.9,25.8,31.7C155.3,355.7,137.5,338.1,118.8,321.5z M63.3,276.5c1.9,1.6,3.7,3.1,5.6,4.7c-3-2.2-6.1-4.4-9.1-6.6
			C60.9,275.2,62.1,275.8,63.3,276.5z M97.7,276c-6-0.6-12-1.4-18-2.6c-0.4-0.2-0.8-0.5-1.1-0.7c-3.5-2.2-7-4.3-10.6-6.4
			C77.8,269.9,87.7,273.1,97.7,276z M197.4,314.4c13.1,14.4,20.4,32.3,25.8,50.8c1.7,18.9,4.3,37.5,9.4,56c1.1,4,2.3,8.1,3.6,12.1
			c0.5,3.6,1,7.1,1.5,10.7c-1.4-1.8-2.7-3.6-3.9-5.5c-7.6-11.2-12.9-23.6-19-35.6c-10.9-21.8-25.4-39.4-44.1-55
			c-8.9-7.4-18-14.6-27.3-21.6c-15.8-16.5-33-31.6-51.8-44.9c11.5,1.4,23.1,2,34.7,2.4c0.4,0,0.8,0,1.2,0
			C152.9,289.5,179,294.2,197.4,314.4z M164.9,251.7c-23.2-14.4-45.5-30.3-67.3-46.6c-5-3.7-9.9-7.5-14.9-11.2
			c1.8,0.6,3.5,1.2,5.3,1.9c27.4,10,54.1,22.5,78,39.4c16.9,12,31.7,26.4,44.5,42.5C195.2,269,179.7,260.9,164.9,251.7z"/>
		
			<linearGradient id="XMLID_22_" gradientUnits="userSpaceOnUse" x1="145.045" y1="338.2166" x2="300.0715" y2="173.1884" gradientTransform="matrix(-1 0 0 1 472.1519 0)">
			<stop  offset="0" style="stop-color:#533FD3"/>
			<stop  offset="1" style="stop-color:#3521B6"/>
		</linearGradient>
		<path id="XMLID_134_" class="st7" d="M390.6,455h14.2c-5.2-6-10.9-10.8-16.4-16c-11.9-11.2-22.8-23.4-32.5-36.6
			c-23.8-32.3-41.2-68.5-61.4-103.1c19.1,23.1,37.8,46.5,56.1,70.2c20.9,27,41.3,54.4,61.3,82.2c0.7,1,1.5,2.3,2.2,3.3h11.9
			c-3.5-5-7.1-10.2-10.7-15.2c-10.5-20.9-22-41.4-33.8-61.2c-52.7-88.7-120.4-169.2-201.8-233c-41.8-32.7-87.1-60.5-135-83.2
			C33.3,57,21.8,51.8,10.1,46.7c6.4,0.6,12.7,1.2,18.8,1.8c30.6,3.1,59,12.3,85.4,28.2c22.8,13.7,43.4,30.9,61.9,50
			c19.3,19.9,35,43,54.7,62.5c5.8,5.7,12,11,18.4,15.8c17.9,21.5,37.2,42,57.7,61c41,38,95.1,68.5,112.1,125.1
			c0.2,0.8,0.5,1.7,0.7,2.5c0.1,0.4,0.1,0.9,0.2,1.4c3,19.4,5.1,40,8.3,60h9.6c-0.4-2-0.7-4.6-1-6.8c-2.2-14.3-4.5-28.9-7.9-43
			c-1.8-13-3.9-26-6.7-38.8c-5-23.1-12.7-46.2-25.9-66c-13.1-19.7-31.1-34.8-50.9-47.5c-20.5-13.1-42.3-23.9-63.3-36.2
			c-12.3-7.3-23.7-15.1-34.3-24c-4.2-5.3-8.4-10.6-12.5-16c-15.6-20.6-30.4-41.8-47.1-61.5c-15.7-18.7-33.2-36.3-53.9-49.5
			c-23.7-15.2-50.3-21.7-78-25.2C37.6,38.2,19,36.1,0,32.5v20.1C20,61.1,39.8,70,59.2,79.7c92,46.2,172.8,113.2,238.6,192.2
			c32.5,39.1,61.5,81,87,125c1,1.8,2.1,3.6,3.1,5.4c-13.5-17.9-27.3-35.7-41-53.3c-21.7-27.9-43.6-55.8-66.9-82.3
			c-9-10.2-18.4-19.9-28.5-28.9c-33.4-37.6-75.3-65.2-120.8-87.2c-18.4-8.9-37.2-16.9-56-24.9c-9-8.3-18-16.9-27-25.4
			C32.8,86.5,17,73.2,0,61.1v9.8c18,14,35.1,29.4,51.6,45.3c-6.8-2.9-13.5-5.8-20.2-8.7C21.4,98.9,11,90.7,0,83.3v20.9
			c10,5,20.7,9.7,31,14.3c11,9.6,21.9,19.7,32.7,29.5c23.3,21.3,47.5,40.6,74.3,57.5c26.6,16.7,54.2,32.1,79.2,51.2
			c21.9,16.7,41.1,36.5,58.5,57.9c33.6,41.5,60.1,88.1,89.2,132.7c1.6,2.5,3.3,4.7,4.9,7.7h8.3c-7.4-12-14.7-23-21.9-34.5
			c-0.6-1-1.2-2.1-1.8-3.1c0.9,1.1,1.7,2.3,2.6,3.3c8.7,10.5,18.3,20.1,28.3,29.3C387.1,451.6,388.9,453,390.6,455z M270.3,219.3
			c27.2,16.9,56.7,30.2,82.7,49.1c20.3,14.6,36.9,33,47.7,55.7c6.2,12.9,10.4,26.6,13.6,40.5c-12.1-23.2-31.2-41.6-51-58.4
			c-22.5-19.1-45.3-37.5-66.2-58.4C287.9,238.5,279,229,270.3,219.3z M91.6,54.1c19.1,5.6,36.9,14.2,53.1,27
			c20.4,16.1,37.4,36,53.2,56.5c0.7,0.9,1.4,1.8,2.1,2.7c-10.4-12.5-21.1-24.6-33.1-35.8c-19-17.7-40-33.4-63.3-44.9
			C99.6,57.6,95.6,55.8,91.6,54.1z M307.5,344c-12.6-18.2-25.9-35.8-40.8-52.2C248,271,227.1,252.9,204,237.2
			c-26.4-18-54.5-33.3-80.8-51.4c-23.9-16.5-45.2-36.6-66.7-56.2c5.7,2.4,11.4,4.9,17,7.3c18.4,16.8,37.8,31.7,60.1,43.7
			c26.7,14.4,55.1,25.5,80.8,41.6c8.3,5.2,16.1,11,23.6,17.2c10.6,11.2,20.5,23.3,29.4,36.5C282.2,297.7,294.7,320.9,307.5,344z"/>
	</g>
</g>
</svg>
